<svg xmlns="http://www.w3.org/2000/svg" viewBox="0 0 1600 900" fill="none">
  <rect width="100%" height="100%" fill="#F5F7FA" />
  <rect x="0" y="0" width="1600" height="120" fill="#FFFFFF" />
  <g transform="translate(120 60) scale(0.9)">
      <path d="M120 190 C100 130 150 90 120 40" stroke="#0B2E4E" stroke-width="12" stroke-linecap="round" fill="none" />
      <path d="M120 40 C170 70 160 130 212 170" stroke="#0FA3B1" stroke-width="12" stroke-linecap="round" fill="none" />
      <circle cx="120" cy="40" r="10" fill="#0FA3B1" />
      <circle cx="156" cy="108" r="8" fill="#6A7A8C" />
      <circle cx="212" cy="170" r="14" fill="#0B2E4E" />
  </g>
  <g transform="translate(260 70) scale(1.05)">
    <path d="M28.80 72.00 L6.77 72.00 L6.77 21.60 L28.80 21.60 Q37.01 21.60 43.20 24.77 Q49.39 27.94 52.85 33.55 Q56.30 39.17 56.30 46.80 L56.30 46.80 Q56.30 54.36 52.85 60.01 Q49.39 65.66 43.20 68.83 Q37.01 72.00 28.80 72.00 L28.80 72.00 Z M16.13 29.52 L16.13 64.08 L28.37 64.08 Q33.98 64.08 38.16 61.92 Q42.34 59.76 44.60 55.87 Q46.87 51.98 46.87 46.80 L46.87 46.80 Q46.87 41.54 44.60 37.69 Q42.34 33.84 38.16 31.68 Q33.98 29.52 28.37 29.52 L28.37 29.52 L16.13 29.52 Z M74.38 72.00 L65.38 72.00 L65.38 33.55 L73.94 33.55 L73.94 44.14 L72.94 41.04 Q74.66 37.15 78.37 35.14 Q82.08 33.12 87.62 33.12 L87.62 33.12 L87.62 41.69 Q87.05 41.54 86.54 41.51 Q86.04 41.47 85.54 41.47 L85.54 41.47 Q80.42 41.47 77.40 44.46 Q74.38 47.45 74.38 53.35 L74.38 53.35 L74.38 72.00 Z M131.98 72.72 L131.98 72.72 Q126.07 72.72 120.67 71.03 Q115.27 69.34 112.10 66.67 L112.10 66.67 L115.34 59.40 Q118.37 61.78 122.83 63.36 Q127.30 64.94 131.98 64.94 L131.98 64.94 Q135.94 64.94 138.38 64.08 Q140.83 63.22 141.98 61.74 Q143.14 60.26 143.14 58.39 L143.14 58.39 Q143.14 56.09 141.48 54.68 Q139.82 53.28 137.20 52.45 Q134.57 51.62 131.36 50.90 Q128.16 50.18 124.96 49.21 Q121.75 48.24 119.12 46.69 Q116.50 45.14 114.84 42.55 Q113.18 39.96 113.18 35.93 L113.18 35.93 Q113.18 31.82 115.38 28.40 Q117.58 24.98 122.08 22.93 Q126.58 20.88 133.49 20.88 L133.49 20.88 Q138.02 20.88 142.49 22.03 Q146.95 23.18 150.26 25.34 L150.26 25.34 L147.31 32.62 Q143.93 30.60 140.33 29.63 Q136.73 28.66 133.42 28.66 L133.42 28.66 Q129.53 28.66 127.12 29.59 Q124.70 30.53 123.59 32.04 Q122.47 33.55 122.47 35.50 L122.47 35.50 Q122.47 37.80 124.09 39.20 Q125.71 40.61 128.34 41.40 Q130.97 42.19 134.21 42.95 Q137.45 43.70 140.65 44.64 Q143.86 45.58 146.48 47.09 Q149.11 48.60 150.73 51.19 Q152.35 53.78 152.35 57.74 L152.35 57.74 Q152.35 61.78 150.16 65.20 Q147.96 68.62 143.42 70.67 Q138.89 72.72 131.98 72.72 Z M192.96 72.00 L184.46 72.00 L184.46 64.22 L183.96 62.57 L183.96 48.96 Q183.96 45.00 181.58 42.80 Q179.21 40.61 174.38 40.61 L174.38 40.61 Q171.14 40.61 168.01 41.62 Q164.88 42.62 162.72 44.42 L162.72 44.42 L159.19 37.87 Q162.29 35.50 166.57 34.31 Q170.86 33.12 175.46 33.12 L175.46 33.12 Q183.82 33.12 188.39 37.12 Q192.96 41.11 192.96 49.46 L192.96 49.46 L192.96 72.00 Z M172.37 72.50 L172.37 72.50 Q168.05 72.50 164.81 71.03 Q161.57 69.55 159.80 66.92 Q158.04 64.30 158.04 60.98 L158.04 60.98 Q158.04 57.74 159.59 55.15 Q161.14 52.56 164.66 51.05 Q168.19 49.54 174.02 49.54 L174.02 49.54 L185.18 49.54 L185.18 55.51 L174.67 55.51 Q170.06 55.51 168.48 56.99 Q166.90 58.46 166.90 60.62 L166.90 60.62 Q166.90 63.07 168.84 64.51 Q170.78 65.95 174.24 65.95 L174.24 65.95 Q177.55 65.95 180.18 64.44 Q182.81 62.93 183.96 59.98 L183.96 59.98 L185.47 65.38 Q184.18 68.76 180.83 70.63 Q177.48 72.50 172.37 72.50 Z M207.65 86.47 L207.65 86.47 Q204.84 86.47 202.03 85.54 Q199.22 84.60 197.35 82.94 L197.35 82.94 L200.95 76.32 Q202.32 77.54 204.05 78.26 Q205.78 78.98 207.58 78.98 L207.58 78.98 Q210.02 78.98 211.54 77.76 Q213.05 76.54 214.34 73.66 L214.34 73.66 L216.58 68.62 L217.30 67.54 L231.84 33.55 L240.48 33.55 L222.48 75.10 Q220.68 79.42 218.48 81.94 Q216.29 84.46 213.59 85.46 Q210.89 86.47 207.65 86.47 Z M221.69 66.74 L215.57 73.37 L198.22 33.55 L207.58 33.55 L221.69 66.74 Z M262.37 72.50 L262.37 72.50 Q257.47 72.50 253.73 70.67 Q249.98 68.83 247.90 65.05 Q245.81 61.27 245.81 55.51 L245.81 55.51 L245.81 33.55 L254.81 33.55 L254.81 54.29 Q254.81 59.47 257.15 62.03 Q259.49 64.58 263.81 64.58 L263.81 64.58 Q266.98 64.58 269.32 63.29 Q271.66 61.99 272.99 59.40 Q274.32 56.81 274.32 52.99 L274.32 52.99 L274.32 33.55 L283.32 33.55 L283.32 72.00 L274.75 72.00 L274.75 61.63 L276.26 64.80 Q274.32 68.54 270.58 70.52 Q266.83 72.50 262.37 72.50 Z M291.17 86.47 L291.17 86.47 Q288.65 86.47 286.38 85.93 Q284.11 85.39 282.53 84.24 L282.53 84.24 L285.12 77.54 Q287.21 79.06 290.38 79.06 L290.38 79.06 Q292.82 79.06 294.19 77.51 Q295.56 75.96 295.56 72.94 L295.56 72.94 L295.56 33.55 L304.56 33.55 L304.56 72.72 Q304.56 79.06 301.07 82.76 Q297.58 86.47 291.17 86.47 Z M300.02 27.22 L300.02 27.22 Q297.50 27.22 295.88 25.63 Q294.26 24.05 294.26 21.82 L294.26 21.82 Q294.26 19.51 295.88 17.96 Q297.50 16.42 300.02 16.42 L300.02 16.42 Q302.54 16.42 304.16 17.89 Q305.78 19.37 305.78 21.60 L305.78 21.60 Q305.78 23.98 304.20 25.60 Q302.62 27.22 300.02 27.22 Z" fill="#0B2E4E" />
  </g>
  <text x="620" y="80" font-family="'Inter', 'Helvetica Neue', Arial" font-size="30" fill="#0B2E4E">Home</text>
  <text x="720" y="80" font-family="'Inter', 'Helvetica Neue', Arial" font-size="30" fill="#6A7A8C">Services</text>
  <text x="860" y="80" font-family="'Inter', 'Helvetica Neue', Arial" font-size="30" fill="#6A7A8C">About</text>
  <text x="980" y="80" font-family="'Inter', 'Helvetica Neue', Arial" font-size="30" fill="#6A7A8C">Resources</text>
  <rect x="1180" y="40" width="200" height="56" rx="28" fill="#0FA3B1" />
  <text x="1218" y="78" font-family="'Inter', 'Helvetica Neue', Arial" font-size="26" fill="#FFFFFF">Book Consultation</text>
  <rect x="0" y="120" width="1600" height="560" fill="#FFFFFF" />
  <g transform="translate(200 260)">
      <path d="M120 190 C100 130 150 90 120 40" stroke="#0B2E4E" stroke-width="12" stroke-linecap="round" fill="none" />
      <path d="M120 40 C170 70 160 130 212 170" stroke="#0FA3B1" stroke-width="12" stroke-linecap="round" fill="none" />
      <circle cx="120" cy="40" r="10" fill="#0FA3B1" />
      <circle cx="156" cy="108" r="8" fill="#6A7A8C" />
      <circle cx="212" cy="170" r="14" fill="#0B2E4E" />
  </g>
  <g transform="translate(520 380) scale(1.4)">
    <path d="M28.80 72.00 L6.77 72.00 L6.77 21.60 L28.80 21.60 Q37.01 21.60 43.20 24.77 Q49.39 27.94 52.85 33.55 Q56.30 39.17 56.30 46.80 L56.30 46.80 Q56.30 54.36 52.85 60.01 Q49.39 65.66 43.20 68.83 Q37.01 72.00 28.80 72.00 L28.80 72.00 Z M16.13 29.52 L16.13 64.08 L28.37 64.08 Q33.98 64.08 38.16 61.92 Q42.34 59.76 44.60 55.87 Q46.87 51.98 46.87 46.80 L46.87 46.80 Q46.87 41.54 44.60 37.69 Q42.34 33.84 38.16 31.68 Q33.98 29.52 28.37 29.52 L28.37 29.52 L16.13 29.52 Z M74.38 72.00 L65.38 72.00 L65.38 33.55 L73.94 33.55 L73.94 44.14 L72.94 41.04 Q74.66 37.15 78.37 35.14 Q82.08 33.12 87.62 33.12 L87.62 33.12 L87.62 41.69 Q87.05 41.54 86.54 41.51 Q86.04 41.47 85.54 41.47 L85.54 41.47 Q80.42 41.47 77.40 44.46 Q74.38 47.45 74.38 53.35 L74.38 53.35 L74.38 72.00 Z M131.98 72.72 L131.98 72.72 Q126.07 72.72 120.67 71.03 Q115.27 69.34 112.10 66.67 L112.10 66.67 L115.34 59.40 Q118.37 61.78 122.83 63.36 Q127.30 64.94 131.98 64.94 L131.98 64.94 Q135.94 64.94 138.38 64.08 Q140.83 63.22 141.98 61.74 Q143.14 60.26 143.14 58.39 L143.14 58.39 Q143.14 56.09 141.48 54.68 Q139.82 53.28 137.20 52.45 Q134.57 51.62 131.36 50.90 Q128.16 50.18 124.96 49.21 Q121.75 48.24 119.12 46.69 Q116.50 45.14 114.84 42.55 Q113.18 39.96 113.18 35.93 L113.18 35.93 Q113.18 31.82 115.38 28.40 Q117.58 24.98 122.08 22.93 Q126.58 20.88 133.49 20.88 L133.49 20.88 Q138.02 20.88 142.49 22.03 Q146.95 23.18 150.26 25.34 L150.26 25.34 L147.31 32.62 Q143.93 30.60 140.33 29.63 Q136.73 28.66 133.42 28.66 L133.42 28.66 Q129.53 28.66 127.12 29.59 Q124.70 30.53 123.59 32.04 Q122.47 33.55 122.47 35.50 L122.47 35.50 Q122.47 37.80 124.09 39.20 Q125.71 40.61 128.34 41.40 Q130.97 42.19 134.21 42.95 Q137.45 43.70 140.65 44.64 Q143.86 45.58 146.48 47.09 Q149.11 48.60 150.73 51.19 Q152.35 53.78 152.35 57.74 L152.35 57.74 Q152.35 61.78 150.16 65.20 Q147.96 68.62 143.42 70.67 Q138.89 72.72 131.98 72.72 Z M192.96 72.00 L184.46 72.00 L184.46 64.22 L183.96 62.57 L183.96 48.96 Q183.96 45.00 181.58 42.80 Q179.21 40.61 174.38 40.61 L174.38 40.61 Q171.14 40.61 168.01 41.62 Q164.88 42.62 162.72 44.42 L162.72 44.42 L159.19 37.87 Q162.29 35.50 166.57 34.31 Q170.86 33.12 175.46 33.12 L175.46 33.12 Q183.82 33.12 188.39 37.12 Q192.96 41.11 192.96 49.46 L192.96 49.46 L192.96 72.00 Z M172.37 72.50 L172.37 72.50 Q168.05 72.50 164.81 71.03 Q161.57 69.55 159.80 66.92 Q158.04 64.30 158.04 60.98 L158.04 60.98 Q158.04 57.74 159.59 55.15 Q161.14 52.56 164.66 51.05 Q168.19 49.54 174.02 49.54 L174.02 49.54 L185.18 49.54 L185.18 55.51 L174.67 55.51 Q170.06 55.51 168.48 56.99 Q166.90 58.46 166.90 60.62 L166.90 60.62 Q166.90 63.07 168.84 64.51 Q170.78 65.95 174.24 65.95 L174.24 65.95 Q177.55 65.95 180.18 64.44 Q182.81 62.93 183.96 59.98 L183.96 59.98 L185.47 65.38 Q184.18 68.76 180.83 70.63 Q177.48 72.50 172.37 72.50 Z M207.65 86.47 L207.65 86.47 Q204.84 86.47 202.03 85.54 Q199.22 84.60 197.35 82.94 L197.35 82.94 L200.95 76.32 Q202.32 77.54 204.05 78.26 Q205.78 78.98 207.58 78.98 L207.58 78.98 Q210.02 78.98 211.54 77.76 Q213.05 76.54 214.34 73.66 L214.34 73.66 L216.58 68.62 L217.30 67.54 L231.84 33.55 L240.48 33.55 L222.48 75.10 Q220.68 79.42 218.48 81.94 Q216.29 84.46 213.59 85.46 Q210.89 86.47 207.65 86.47 Z M221.69 66.74 L215.57 73.37 L198.22 33.55 L207.58 33.55 L221.69 66.74 Z M262.37 72.50 L262.37 72.50 Q257.47 72.50 253.73 70.67 Q249.98 68.83 247.90 65.05 Q245.81 61.27 245.81 55.51 L245.81 55.51 L245.81 33.55 L254.81 33.55 L254.81 54.29 Q254.81 59.47 257.15 62.03 Q259.49 64.58 263.81 64.58 L263.81 64.58 Q266.98 64.58 269.32 63.29 Q271.66 61.99 272.99 59.40 Q274.32 56.81 274.32 52.99 L274.32 52.99 L274.32 33.55 L283.32 33.55 L283.32 72.00 L274.75 72.00 L274.75 61.63 L276.26 64.80 Q274.32 68.54 270.58 70.52 Q266.83 72.50 262.37 72.50 Z M291.17 86.47 L291.17 86.47 Q288.65 86.47 286.38 85.93 Q284.11 85.39 282.53 84.24 L282.53 84.24 L285.12 77.54 Q287.21 79.06 290.38 79.06 L290.38 79.06 Q292.82 79.06 294.19 77.51 Q295.56 75.96 295.56 72.94 L295.56 72.94 L295.56 33.55 L304.56 33.55 L304.56 72.72 Q304.56 79.06 301.07 82.76 Q297.58 86.47 291.17 86.47 Z M300.02 27.22 L300.02 27.22 Q297.50 27.22 295.88 25.63 Q294.26 24.05 294.26 21.82 L294.26 21.82 Q294.26 19.51 295.88 17.96 Q297.50 16.42 300.02 16.42 L300.02 16.42 Q302.54 16.42 304.16 17.89 Q305.78 19.37 305.78 21.60 L305.78 21.60 Q305.78 23.98 304.20 25.60 Q302.62 27.22 300.02 27.22 Z" fill="#0B2E4E" />
  </g>
  <text x="520" y="480" font-family="'Inter', 'Helvetica Neue', Arial" font-size="32" fill="#6A7A8C">Neurosurgeon • Endoscopic Spine Surgery</text>
  <text x="520" y="540" font-family="'Inter', 'Helvetica Neue', Arial" font-size="24" fill="#0B2E4E">www.drsayuj.info</text>
  <rect x="520" y="580" width="360" height="64" rx="32" fill="#0B2E4E" />
  <text x="540" y="622" font-family="'Inter', 'Helvetica Neue', Arial" font-size="26" fill="#FFFFFF">Explore Spine Solutions</text>
</svg>