<svg xmlns="http://www.w3.org/2000/svg" viewBox="0 0 1920 1080" fill="none">
  <rect width="100%" height="100%" fill="#FFFFFF" />
  <text x="96" y="96" fill="#0B2E4E" font-family="'Inter', 'Helvetica Neue', Arial" font-size="48" font-weight="600">Concept Routes — Dr Sayuj</text>
  <g transform="translate(60 70)">
    <rect width="280" height="200" fill="#F7FAFC" rx="24" />
    <text x="32" y="48" fill="#0B2E4E" font-family="'Inter', 'Helvetica Neue', Arial" font-size="20" font-weight="500">S-curve Spine A</text>
    <image href="route1-s-curve-01.svg" x="20" y="60" width="240" height="120" preserveAspectRatio="xMidYMid meet" />
  </g>
  <g transform="translate(380 70)">
    <rect width="280" height="200" fill="#F7FAFC" rx="24" />
    <text x="32" y="48" fill="#0B2E4E" font-family="'Inter', 'Helvetica Neue', Arial" font-size="20" font-weight="500">S-curve Spine B</text>
    <image href="route1-s-curve-02.svg" x="20" y="60" width="240" height="120" preserveAspectRatio="xMidYMid meet" />
  </g>
  <g transform="translate(700 70)">
    <rect width="280" height="200" fill="#F7FAFC" rx="24" />
    <text x="32" y="48" fill="#0B2E4E" font-family="'Inter', 'Helvetica Neue', Arial" font-size="20" font-weight="500">S-curve Spine C</text>
    <image href="route1-s-curve-03.svg" x="20" y="60" width="240" height="120" preserveAspectRatio="xMidYMid meet" />
  </g>
  <g transform="translate(1020 70)">
    <rect width="280" height="200" fill="#F7FAFC" rx="24" />
    <text x="32" y="48" fill="#0B2E4E" font-family="'Inter', 'Helvetica Neue', Arial" font-size="20" font-weight="500">S-curve Spine D</text>
    <image href="route1-s-curve-04.svg" x="20" y="60" width="240" height="120" preserveAspectRatio="xMidYMid meet" />
  </g>
  <g transform="translate(60 310)">
    <rect width="280" height="200" fill="#F7FAFC" rx="24" />
    <text x="32" y="48" fill="#0B2E4E" font-family="'Inter', 'Helvetica Neue', Arial" font-size="20" font-weight="500">Endoscope Arc A</text>
    <image href="route2-endoscope-01.svg" x="20" y="60" width="240" height="120" preserveAspectRatio="xMidYMid meet" />
  </g>
  <g transform="translate(380 310)">
    <rect width="280" height="200" fill="#F7FAFC" rx="24" />
    <text x="32" y="48" fill="#0B2E4E" font-family="'Inter', 'Helvetica Neue', Arial" font-size="20" font-weight="500">Endoscope Arc B</text>
    <image href="route2-endoscope-02.svg" x="20" y="60" width="240" height="120" preserveAspectRatio="xMidYMid meet" />
  </g>
  <g transform="translate(700 310)">
    <rect width="280" height="200" fill="#F7FAFC" rx="24" />
    <text x="32" y="48" fill="#0B2E4E" font-family="'Inter', 'Helvetica Neue', Arial" font-size="20" font-weight="500">Endoscope Arc C</text>
    <image href="route2-endoscope-03.svg" x="20" y="60" width="240" height="120" preserveAspectRatio="xMidYMid meet" />
  </g>
  <g transform="translate(1020 310)">
    <rect width="280" height="200" fill="#F7FAFC" rx="24" />
    <text x="32" y="48" fill="#0B2E4E" font-family="'Inter', 'Helvetica Neue', Arial" font-size="20" font-weight="500">Endoscope Arc D</text>
    <image href="route2-endoscope-04.svg" x="20" y="60" width="240" height="120" preserveAspectRatio="xMidYMid meet" />
  </g>
  <g transform="translate(60 550)">
    <rect width="280" height="200" fill="#F7FAFC" rx="24" />
    <text x="32" y="48" fill="#0B2E4E" font-family="'Inter', 'Helvetica Neue', Arial" font-size="20" font-weight="500">Neuron Spine A</text>
    <image href="route3-neuron-01.svg" x="20" y="60" width="240" height="120" preserveAspectRatio="xMidYMid meet" />
  </g>
  <g transform="translate(380 550)">
    <rect width="280" height="200" fill="#F7FAFC" rx="24" />
    <text x="32" y="48" fill="#0B2E4E" font-family="'Inter', 'Helvetica Neue', Arial" font-size="20" font-weight="500">Neuron Spine B</text>
    <image href="route3-neuron-02.svg" x="20" y="60" width="240" height="120" preserveAspectRatio="xMidYMid meet" />
  </g>
  <g transform="translate(700 550)">
    <rect width="280" height="200" fill="#F7FAFC" rx="24" />
    <text x="32" y="48" fill="#0B2E4E" font-family="'Inter', 'Helvetica Neue', Arial" font-size="20" font-weight="500">Neuron Spine C</text>
    <image href="route3-neuron-03.svg" x="20" y="60" width="240" height="120" preserveAspectRatio="xMidYMid meet" />
  </g>
  <g transform="translate(1020 550)">
    <rect width="280" height="200" fill="#F7FAFC" rx="24" />
    <text x="32" y="48" fill="#0B2E4E" font-family="'Inter', 'Helvetica Neue', Arial" font-size="20" font-weight="500">Neuron Spine D</text>
    <image href="route3-neuron-04.svg" x="20" y="60" width="240" height="120" preserveAspectRatio="xMidYMid meet" />
  </g>
</svg>