<svg xmlns="http://www.w3.org/2000/svg" viewBox="0 0 960 540" fill="none">
  <rect width="100%" height="100%" fill="#FFFFFF" rx="32"/>
    <g transform="translate(120 110)">
      <circle cx="140" cy="90" r="84" stroke="#0B2E4E" stroke-width="6" fill="none" />
      <path d="M140 30 C108 40 108 72 140 90 C172 108 172 140 140 150" stroke="#0FA3B1" stroke-width="10" stroke-linecap="round" fill="none" />
      <path d="M124 68 H156" stroke="#6A7A8C" stroke-width="5" stroke-linecap="round" />
      <path d="M128 112 H152" stroke="#6A7A8C" stroke-width="5" stroke-linecap="round" />
    </g>
    <g transform="translate(360 275) scale(1)">
      <path d="M28.80 72.00 L6.77 72.00 L6.77 21.60 L28.80 21.60 Q37.01 21.60 43.20 24.77 Q49.39 27.94 52.85 33.55 Q56.30 39.17 56.30 46.80 L56.30 46.80 Q56.30 54.36 52.85 60.01 Q49.39 65.66 43.20 68.83 Q37.01 72.00 28.80 72.00 L28.80 72.00 Z M16.13 29.52 L16.13 64.08 L28.37 64.08 Q33.98 64.08 38.16 61.92 Q42.34 59.76 44.60 55.87 Q46.87 51.98 46.87 46.80 L46.87 46.80 Q46.87 41.54 44.60 37.69 Q42.34 33.84 38.16 31.68 Q33.98 29.52 28.37 29.52 L28.37 29.52 L16.13 29.52 Z M74.38 72.00 L65.38 72.00 L65.38 33.55 L73.94 33.55 L73.94 44.14 L72.94 41.04 Q74.66 37.15 78.37 35.14 Q82.08 33.12 87.62 33.12 L87.62 33.12 L87.62 41.69 Q87.05 41.54 86.54 41.51 Q86.04 41.47 85.54 41.47 L85.54 41.47 Q80.42 41.47 77.40 44.46 Q74.38 47.45 74.38 53.35 L74.38 53.35 L74.38 72.00 Z M131.98 72.72 L131.98 72.72 Q126.07 72.72 120.67 71.03 Q115.27 69.34 112.10 66.67 L112.10 66.67 L115.34 59.40 Q118.37 61.78 122.83 63.36 Q127.30 64.94 131.98 64.94 L131.98 64.94 Q135.94 64.94 138.38 64.08 Q140.83 63.22 141.98 61.74 Q143.14 60.26 143.14 58.39 L143.14 58.39 Q143.14 56.09 141.48 54.68 Q139.82 53.28 137.20 52.45 Q134.57 51.62 131.36 50.90 Q128.16 50.18 124.96 49.21 Q121.75 48.24 119.12 46.69 Q116.50 45.14 114.84 42.55 Q113.18 39.96 113.18 35.93 L113.18 35.93 Q113.18 31.82 115.38 28.40 Q117.58 24.98 122.08 22.93 Q126.58 20.88 133.49 20.88 L133.49 20.88 Q138.02 20.88 142.49 22.03 Q146.95 23.18 150.26 25.34 L150.26 25.34 L147.31 32.62 Q143.93 30.60 140.33 29.63 Q136.73 28.66 133.42 28.66 L133.42 28.66 Q129.53 28.66 127.12 29.59 Q124.70 30.53 123.59 32.04 Q122.47 33.55 122.47 35.50 L122.47 35.50 Q122.47 37.80 124.09 39.20 Q125.71 40.61 128.34 41.40 Q130.97 42.19 134.21 42.95 Q137.45 43.70 140.65 44.64 Q143.86 45.58 146.48 47.09 Q149.11 48.60 150.73 51.19 Q152.35 53.78 152.35 57.74 L152.35 57.74 Q152.35 61.78 150.16 65.20 Q147.96 68.62 143.42 70.67 Q138.89 72.72 131.98 72.72 Z M192.96 72.00 L184.46 72.00 L184.46 64.22 L183.96 62.57 L183.96 48.96 Q183.96 45.00 181.58 42.80 Q179.21 40.61 174.38 40.61 L174.38 40.61 Q171.14 40.61 168.01 41.62 Q164.88 42.62 162.72 44.42 L162.72 44.42 L159.19 37.87 Q162.29 35.50 166.57 34.31 Q170.86 33.12 175.46 33.12 L175.46 33.12 Q183.82 33.12 188.39 37.12 Q192.96 41.11 192.96 49.46 L192.96 49.46 L192.96 72.00 Z M172.37 72.50 L172.37 72.50 Q168.05 72.50 164.81 71.03 Q161.57 69.55 159.80 66.92 Q158.04 64.30 158.04 60.98 L158.04 60.98 Q158.04 57.74 159.59 55.15 Q161.14 52.56 164.66 51.05 Q168.19 49.54 174.02 49.54 L174.02 49.54 L185.18 49.54 L185.18 55.51 L174.67 55.51 Q170.06 55.51 168.48 56.99 Q166.90 58.46 166.90 60.62 L166.90 60.62 Q166.90 63.07 168.84 64.51 Q170.78 65.95 174.24 65.95 L174.24 65.95 Q177.55 65.95 180.18 64.44 Q182.81 62.93 183.96 59.98 L183.96 59.98 L185.47 65.38 Q184.18 68.76 180.83 70.63 Q177.48 72.50 172.37 72.50 Z M207.65 86.47 L207.65 86.47 Q204.84 86.47 202.03 85.54 Q199.22 84.60 197.35 82.94 L197.35 82.94 L200.95 76.32 Q202.32 77.54 204.05 78.26 Q205.78 78.98 207.58 78.98 L207.58 78.98 Q210.02 78.98 211.54 77.76 Q213.05 76.54 214.34 73.66 L214.34 73.66 L216.58 68.62 L217.30 67.54 L231.84 33.55 L240.48 33.55 L222.48 75.10 Q220.68 79.42 218.48 81.94 Q216.29 84.46 213.59 85.46 Q210.89 86.47 207.65 86.47 Z M221.69 66.74 L215.57 73.37 L198.22 33.55 L207.58 33.55 L221.69 66.74 Z M262.37 72.50 L262.37 72.50 Q257.47 72.50 253.73 70.67 Q249.98 68.83 247.90 65.05 Q245.81 61.27 245.81 55.51 L245.81 55.51 L245.81 33.55 L254.81 33.55 L254.81 54.29 Q254.81 59.47 257.15 62.03 Q259.49 64.58 263.81 64.58 L263.81 64.58 Q266.98 64.58 269.32 63.29 Q271.66 61.99 272.99 59.40 Q274.32 56.81 274.32 52.99 L274.32 52.99 L274.32 33.55 L283.32 33.55 L283.32 72.00 L274.75 72.00 L274.75 61.63 L276.26 64.80 Q274.32 68.54 270.58 70.52 Q266.83 72.50 262.37 72.50 Z M291.17 86.47 L291.17 86.47 Q288.65 86.47 286.38 85.93 Q284.11 85.39 282.53 84.24 L282.53 84.24 L285.12 77.54 Q287.21 79.06 290.38 79.06 L290.38 79.06 Q292.82 79.06 294.19 77.51 Q295.56 75.96 295.56 72.94 L295.56 72.94 L295.56 33.55 L304.56 33.55 L304.56 72.72 Q304.56 79.06 301.07 82.76 Q297.58 86.47 291.17 86.47 Z M300.02 27.22 L300.02 27.22 Q297.50 27.22 295.88 25.63 Q294.26 24.05 294.26 21.82 L294.26 21.82 Q294.26 19.51 295.88 17.96 Q297.50 16.42 300.02 16.42 L300.02 16.42 Q302.54 16.42 304.16 17.89 Q305.78 19.37 305.78 21.60 L305.78 21.60 Q305.78 23.98 304.20 25.60 Q302.62 27.22 300.02 27.22 Z" fill="#0B2E4E" />
    </g>
    <g transform="translate(360 345) scale(1)">
      <path d="M5.43 30.00 L2.64 30.00 L2.64 8.17 L5.92 8.17 L14.79 22.13 Q15.15 22.68 15.64 23.53 Q16.14 24.38 16.72 25.44 Q17.30 26.51 17.86 27.73 L17.86 27.73 L17.46 27.73 Q17.33 26.47 17.27 25.32 Q17.21 24.17 17.20 23.20 Q17.18 22.24 17.18 21.56 L17.18 21.56 L17.18 8.17 L19.97 8.17 L19.97 30.00 L16.66 30.00 L8.75 17.58 Q8.20 16.71 7.65 15.80 Q7.10 14.88 6.40 13.63 Q5.70 12.38 4.66 10.53 L4.66 10.53 L5.17 10.53 Q5.24 12.16 5.30 13.54 Q5.36 14.91 5.40 15.94 Q5.43 16.96 5.43 17.55 L5.43 17.55 L5.43 30.00 Z M31.80 30.35 L31.80 30.35 Q29.43 30.35 27.71 29.30 Q25.99 28.24 25.06 26.35 Q24.13 24.46 24.13 21.94 L24.13 21.94 Q24.13 19.42 25.03 17.50 Q25.94 15.59 27.60 14.50 Q29.27 13.42 31.49 13.42 L31.49 13.42 Q32.80 13.42 34.06 13.85 Q35.33 14.28 36.36 15.24 Q37.40 16.20 38.01 17.77 Q38.63 19.34 38.63 21.61 L38.63 21.61 L38.63 22.71 L25.91 22.71 L25.91 20.48 L37.21 20.48 L35.98 21.30 Q35.98 19.69 35.47 18.44 Q34.97 17.18 33.97 16.47 Q32.97 15.76 31.49 15.76 L31.49 15.76 Q30.01 15.76 28.96 16.49 Q27.91 17.21 27.35 18.38 Q26.79 19.54 26.79 20.87 L26.79 20.87 L26.79 22.35 Q26.79 24.17 27.42 25.44 Q28.05 26.70 29.19 27.36 Q30.32 28.01 31.82 28.01 L31.82 28.01 Q32.78 28.01 33.57 27.73 Q34.37 27.45 34.94 26.89 Q35.51 26.32 35.82 25.49 L35.82 25.49 L38.36 26.19 Q37.98 27.42 37.08 28.36 Q36.17 29.30 34.83 29.82 Q33.49 30.35 31.80 30.35 Z M47.96 30.21 L47.96 30.21 Q46.30 30.21 45.05 29.52 Q43.80 28.84 43.10 27.47 Q42.41 26.09 42.41 24.02 L42.41 24.02 L42.41 13.62 L45.04 13.62 L45.04 23.80 Q45.04 25.69 46.04 26.76 Q47.04 27.83 48.75 27.83 L48.75 27.83 Q49.92 27.83 50.85 27.32 Q51.78 26.81 52.32 25.82 Q52.87 24.83 52.87 23.44 L52.87 23.44 L52.87 13.62 L55.52 13.62 L55.52 30.00 L52.97 30.00 L52.97 26.03 L53.32 26.03 Q52.56 28.33 51.16 29.27 Q49.76 30.21 47.96 30.21 Z M62.78 30.00 L60.15 30.00 L60.15 13.62 L62.70 13.62 L62.70 16.14 L62.87 16.14 Q63.33 14.90 64.49 14.14 Q65.65 13.39 67.12 13.39 L67.12 13.39 Q67.41 13.39 67.81 13.40 Q68.22 13.42 68.45 13.43 L68.45 13.43 L68.45 16.08 Q68.33 16.05 67.87 16.00 Q67.40 15.94 66.87 15.94 L66.87 15.94 Q65.70 15.94 64.77 16.43 Q63.84 16.92 63.31 17.78 Q62.78 18.63 62.78 19.75 L62.78 19.75 L62.78 30.00 Z M78.11 30.35 L78.11 30.35 Q75.88 30.35 74.20 29.30 Q72.52 28.24 71.59 26.34 Q70.65 24.43 70.65 21.91 L70.65 21.91 Q70.65 19.35 71.59 17.44 Q72.52 15.53 74.20 14.47 Q75.88 13.42 78.11 13.42 L78.11 13.42 Q80.35 13.42 82.03 14.47 Q83.72 15.53 84.65 17.44 Q85.59 19.35 85.59 21.91 L85.59 21.91 Q85.59 24.43 84.65 26.34 Q83.72 28.24 82.03 29.30 Q80.35 30.35 78.11 30.35 Z M78.11 27.99 L78.11 27.99 Q79.76 27.99 80.83 27.14 Q81.90 26.29 82.41 24.91 Q82.92 23.53 82.92 21.91 L82.92 21.91 Q82.92 20.29 82.41 18.89 Q81.90 17.49 80.83 16.63 Q79.76 15.78 78.11 15.78 L78.11 15.78 Q76.46 15.78 75.41 16.63 Q74.36 17.49 73.84 18.88 Q73.33 20.27 73.33 21.91 L73.33 21.91 Q73.33 23.53 73.84 24.91 Q74.36 26.29 75.41 27.14 Q76.46 27.99 78.11 27.99 Z M95.00 30.35 L95.00 30.35 Q93.31 30.35 92.00 29.86 Q90.69 29.37 89.84 28.40 Q88.99 27.44 88.70 26.03 L88.70 26.03 L91.20 25.43 Q91.55 26.78 92.53 27.41 Q93.50 28.04 94.97 28.04 L94.97 28.04 Q96.68 28.04 97.70 27.30 Q98.72 26.57 98.72 25.56 L98.72 25.56 Q98.72 24.71 98.12 24.15 Q97.53 23.58 96.31 23.31 L96.31 23.31 L93.59 22.66 Q91.36 22.13 90.28 21.03 Q89.19 19.92 89.19 18.19 L89.19 18.19 Q89.19 16.79 89.99 15.71 Q90.78 14.63 92.15 14.03 Q93.52 13.42 95.26 13.42 L95.26 13.42 Q96.94 13.42 98.12 13.92 Q99.30 14.43 100.04 15.31 Q100.78 16.20 101.15 17.36 L101.15 17.36 L98.76 17.97 Q98.42 17.09 97.64 16.38 Q96.86 15.66 95.27 15.66 L95.27 15.66 Q93.81 15.66 92.83 16.33 Q91.86 17.01 91.86 18.03 L91.86 18.03 Q91.86 18.94 92.52 19.49 Q93.18 20.04 94.61 20.38 L94.61 20.38 L97.09 20.96 Q99.32 21.49 100.39 22.60 Q101.46 23.70 101.46 25.39 L101.46 25.39 Q101.46 26.82 100.64 27.94 Q99.83 29.06 98.37 29.71 Q96.91 30.35 95.00 30.35 Z M110.82 30.21 L110.82 30.21 Q109.16 30.21 107.91 29.52 Q106.66 28.84 105.96 27.47 Q105.26 26.09 105.26 24.02 L105.26 24.02 L105.26 13.62 L107.90 13.62 L107.90 23.80 Q107.90 25.69 108.90 26.76 Q109.89 27.83 111.61 27.83 L111.61 27.83 Q112.78 27.83 113.71 27.32 Q114.64 26.81 115.18 25.82 Q115.72 24.83 115.72 23.44 L115.72 23.44 L115.72 13.62 L118.37 13.62 L118.37 30.00 L115.83 30.00 L115.83 26.03 L116.18 26.03 Q115.42 28.33 114.02 29.27 Q112.62 30.21 110.82 30.21 Z M125.64 30.00 L123.00 30.00 L123.00 13.62 L125.55 13.62 L125.55 16.14 L125.73 16.14 Q126.18 14.90 127.35 14.14 Q128.51 13.39 129.98 13.39 L129.98 13.39 Q130.27 13.39 130.67 13.40 Q131.07 13.42 131.31 13.43 L131.31 13.43 L131.31 16.08 Q131.19 16.05 130.72 16.00 Q130.25 15.94 129.73 15.94 L129.73 15.94 Q128.55 15.94 127.62 16.43 Q126.69 16.92 126.17 17.78 Q125.64 18.63 125.64 19.75 L125.64 19.75 L125.64 30.00 Z M140.93 36.47 L140.93 36.47 Q139.12 36.47 137.79 36.01 Q136.46 35.55 135.59 34.79 Q134.71 34.03 134.19 33.13 L134.19 33.13 L136.33 31.76 Q136.68 32.23 137.20 32.80 Q137.72 33.37 138.61 33.77 Q139.50 34.17 140.93 34.17 L140.93 34.17 Q142.90 34.17 144.16 33.24 Q145.43 32.30 145.43 30.28 L145.43 30.28 L145.43 27.00 L145.18 27.00 Q144.90 27.47 144.40 28.11 Q143.89 28.75 142.95 29.25 Q142.00 29.74 140.42 29.74 L140.42 29.74 Q138.46 29.74 136.89 28.81 Q135.32 27.88 134.41 26.09 Q133.51 24.30 133.51 21.74 L133.51 21.74 Q133.51 19.20 134.40 17.34 Q135.29 15.47 136.87 14.44 Q138.44 13.42 140.48 13.42 L140.48 13.42 Q142.06 13.42 143.01 13.94 Q143.95 14.46 144.46 15.13 Q144.98 15.81 145.25 16.25 L145.25 16.25 L145.50 16.25 L145.50 13.62 L148.07 13.62 L148.07 30.42 Q148.07 32.53 147.11 33.87 Q146.16 35.21 144.54 35.84 Q142.92 36.47 140.93 36.47 Z M140.86 27.39 L140.86 27.39 Q142.35 27.39 143.38 26.71 Q144.40 26.03 144.93 24.75 Q145.46 23.47 145.46 21.68 L145.46 21.68 Q145.46 19.94 144.94 18.61 Q144.42 17.29 143.39 16.53 Q142.37 15.78 140.86 15.78 L140.86 15.78 Q139.31 15.78 138.27 16.57 Q137.23 17.37 136.71 18.71 Q136.19 20.04 136.19 21.68 L136.19 21.68 Q136.19 23.36 136.71 24.65 Q137.24 25.94 138.28 26.67 Q139.32 27.39 140.86 27.39 Z M159.58 30.35 L159.58 30.35 Q157.21 30.35 155.49 29.30 Q153.76 28.24 152.83 26.35 Q151.90 24.46 151.90 21.94 L151.90 21.94 Q151.90 19.42 152.81 17.50 Q153.72 15.59 155.38 14.50 Q157.05 13.42 159.27 13.42 L159.27 13.42 Q160.58 13.42 161.84 13.85 Q163.11 14.28 164.14 15.24 Q165.18 16.20 165.79 17.77 Q166.41 19.34 166.41 21.61 L166.41 21.61 L166.41 22.71 L153.69 22.71 L153.69 20.48 L164.99 20.48 L163.75 21.30 Q163.75 19.69 163.25 18.44 Q162.74 17.18 161.75 16.47 Q160.75 15.76 159.27 15.76 L159.27 15.76 Q157.79 15.76 156.74 16.49 Q155.68 17.21 155.13 18.38 Q154.57 19.54 154.57 20.87 L154.57 20.87 L154.57 22.35 Q154.57 24.17 155.20 25.44 Q155.83 26.70 156.97 27.36 Q158.10 28.01 159.59 28.01 L159.59 28.01 Q160.56 28.01 161.35 27.73 Q162.14 27.45 162.71 26.89 Q163.29 26.32 163.59 25.49 L163.59 25.49 L166.14 26.19 Q165.76 27.42 164.85 28.36 Q163.95 29.30 162.60 29.82 Q161.26 30.35 159.58 30.35 Z M176.85 30.35 L176.85 30.35 Q174.62 30.35 172.95 29.30 Q171.27 28.24 170.33 26.34 Q169.39 24.43 169.39 21.91 L169.39 21.91 Q169.39 19.35 170.33 17.44 Q171.27 15.53 172.95 14.47 Q174.62 13.42 176.85 13.42 L176.85 13.42 Q179.09 13.42 180.78 14.47 Q182.46 15.53 183.40 17.44 Q184.34 19.35 184.34 21.91 L184.34 21.91 Q184.34 24.43 183.40 26.34 Q182.46 28.24 180.78 29.30 Q179.09 30.35 176.85 30.35 Z M176.85 27.99 L176.85 27.99 Q178.51 27.99 179.58 27.14 Q180.64 26.29 181.16 24.91 Q181.67 23.53 181.67 21.91 L181.67 21.91 Q181.67 20.29 181.16 18.89 Q180.64 17.49 179.58 16.63 Q178.51 15.78 176.85 15.78 L176.85 15.78 Q175.21 15.78 174.16 16.63 Q173.10 17.49 172.59 18.88 Q172.08 20.27 172.08 21.91 L172.08 21.91 Q172.08 23.53 172.59 24.91 Q173.10 26.29 174.16 27.14 Q175.21 27.99 176.85 27.99 Z M190.81 20.19 L190.81 20.19 L190.81 30.00 L188.17 30.00 L188.17 13.62 L190.71 13.62 L190.72 17.59 L190.36 17.59 Q191.10 15.32 192.49 14.37 Q193.87 13.42 195.73 13.42 L195.73 13.42 Q197.39 13.42 198.63 14.10 Q199.88 14.78 200.57 16.15 Q201.27 17.52 201.27 19.60 L201.27 19.60 L201.27 30.00 L198.63 30.00 L198.63 19.82 Q198.63 17.93 197.64 16.86 Q196.66 15.79 194.94 15.79 L194.94 15.79 Q193.77 15.79 192.83 16.30 Q191.89 16.82 191.35 17.80 Q190.81 18.78 190.81 20.19 Z M220.46 25.99 L220.46 25.99 Q219.17 25.99 218.10 25.36 Q217.03 24.73 216.40 23.66 Q215.77 22.59 215.77 21.30 L215.77 21.30 Q215.77 20.00 216.40 18.93 Q217.03 17.87 218.10 17.24 Q219.17 16.61 220.46 16.61 L220.46 16.61 Q221.76 16.61 222.82 17.24 Q223.89 17.87 224.52 18.93 Q225.15 20.00 225.15 21.30 L225.15 21.30 Q225.15 22.59 224.52 23.66 Q223.89 24.73 222.82 25.36 Q221.76 25.99 220.46 25.99 Z M253.40 30.00 L239.97 30.00 L239.97 8.17 L253.27 8.17 L253.27 10.63 L242.75 10.63 L242.75 17.75 L252.55 17.75 L252.55 20.21 L242.75 20.21 L242.75 27.54 L253.40 27.54 L253.40 30.00 Z M260.32 20.19 L260.32 20.19 L260.32 30.00 L257.68 30.00 L257.68 13.62 L260.21 13.62 L260.23 17.59 L259.86 17.59 Q260.61 15.32 261.99 14.37 Q263.38 13.42 265.24 13.42 L265.24 13.42 Q266.89 13.42 268.14 14.10 Q269.38 14.78 270.08 16.15 Q270.78 17.52 270.78 19.60 L270.78 19.60 L270.78 30.00 L268.14 30.00 L268.14 19.82 Q268.14 17.93 267.15 16.86 Q266.16 15.79 264.45 15.79 L264.45 15.79 Q263.28 15.79 262.34 16.30 Q261.40 16.82 260.86 17.80 Q260.32 18.78 260.32 20.19 Z M281.54 30.35 L281.54 30.35 Q279.51 30.35 277.94 29.31 Q276.37 28.27 275.49 26.37 Q274.61 24.46 274.61 21.86 L274.61 21.86 Q274.61 19.26 275.50 17.37 Q276.39 15.47 277.95 14.44 Q279.52 13.42 281.56 13.42 L281.56 13.42 Q283.15 13.42 284.09 13.95 Q285.03 14.47 285.53 15.14 Q286.04 15.81 286.30 16.25 L286.30 16.25 L286.51 16.25 L286.51 8.17 L289.15 8.17 L289.15 30.00 L286.60 30.00 L286.60 27.47 L286.30 27.47 Q286.04 27.92 285.52 28.60 Q285.00 29.28 284.06 29.82 Q283.11 30.35 281.54 30.35 Z M281.94 27.99 L281.94 27.99 Q283.43 27.99 284.46 27.21 Q285.48 26.43 286.01 25.03 Q286.54 23.64 286.54 21.83 L286.54 21.83 Q286.54 20.01 286.02 18.65 Q285.50 17.30 284.47 16.54 Q283.45 15.78 281.94 15.78 L281.94 15.78 Q280.39 15.78 279.35 16.58 Q278.32 17.39 277.81 18.76 Q277.29 20.13 277.29 21.83 L277.29 21.83 Q277.29 23.54 277.81 24.94 Q278.33 26.34 279.38 27.17 Q280.42 27.99 281.94 27.99 Z M300.44 30.35 L300.44 30.35 Q298.21 30.35 296.54 29.30 Q294.86 28.24 293.92 26.34 Q292.98 24.43 292.98 21.91 L292.98 21.91 Q292.98 19.35 293.92 17.44 Q294.86 15.53 296.54 14.47 Q298.21 13.42 300.44 13.42 L300.44 13.42 Q302.68 13.42 304.37 14.47 Q306.05 15.53 306.99 17.44 Q307.92 19.35 307.92 21.91 L307.92 21.91 Q307.92 24.43 306.99 26.34 Q306.05 28.24 304.37 29.30 Q302.68 30.35 300.44 30.35 Z M300.44 27.99 L300.44 27.99 Q302.09 27.99 303.16 27.14 Q304.23 26.29 304.75 24.91 Q305.26 23.53 305.26 21.91 L305.26 21.91 Q305.26 20.29 304.75 18.89 Q304.23 17.49 303.16 16.63 Q302.09 15.78 300.44 15.78 L300.44 15.78 Q298.80 15.78 297.74 16.63 Q296.69 17.49 296.18 18.88 Q295.66 20.27 295.66 21.91 L295.66 21.91 Q295.66 23.53 296.18 24.91 Q296.69 26.29 297.74 27.14 Q298.80 27.99 300.44 27.99 Z M317.33 30.35 L317.33 30.35 Q315.64 30.35 314.33 29.86 Q313.02 29.37 312.17 28.40 Q311.32 27.44 311.03 26.03 L311.03 26.03 L313.54 25.43 Q313.89 26.78 314.86 27.41 Q315.83 28.04 317.30 28.04 L317.30 28.04 Q319.01 28.04 320.03 27.30 Q321.05 26.57 321.05 25.56 L321.05 25.56 Q321.05 24.71 320.46 24.15 Q319.86 23.58 318.65 23.31 L318.65 23.31 L315.92 22.66 Q313.70 22.13 312.61 21.03 Q311.53 19.92 311.53 18.19 L311.53 18.19 Q311.53 16.79 312.32 15.71 Q313.11 14.63 314.48 14.03 Q315.85 13.42 317.59 13.42 L317.59 13.42 Q319.28 13.42 320.46 13.92 Q321.64 14.43 322.38 15.31 Q323.12 16.20 323.48 17.36 L323.48 17.36 L321.09 17.97 Q320.76 17.09 319.97 16.38 Q319.19 15.66 317.61 15.66 L317.61 15.66 Q316.14 15.66 315.17 16.33 Q314.19 17.01 314.19 18.03 L314.19 18.03 Q314.19 18.94 314.85 19.49 Q315.51 20.04 316.95 20.38 L316.95 20.38 L319.42 20.96 Q321.65 21.49 322.72 22.60 Q323.79 23.70 323.79 25.39 L323.79 25.39 Q323.79 26.82 322.98 27.94 Q322.16 29.06 320.71 29.71 Q319.25 30.35 317.33 30.35 Z M334.26 30.35 L334.26 30.35 Q332.04 30.35 330.36 29.30 Q328.68 28.24 327.74 26.34 Q326.81 24.43 326.81 21.91 L326.81 21.91 Q326.81 19.35 327.74 17.44 Q328.68 15.53 330.36 14.47 Q332.04 13.42 334.26 13.42 L334.26 13.42 Q335.45 13.42 336.50 13.73 Q337.56 14.03 338.43 14.61 Q339.30 15.19 339.93 16.03 Q340.56 16.88 340.90 17.94 L340.90 17.94 L338.36 18.66 Q338.19 18.03 337.82 17.50 Q337.46 16.98 336.94 16.59 Q336.42 16.20 335.74 15.99 Q335.07 15.78 334.26 15.78 L334.26 15.78 Q332.62 15.78 331.57 16.63 Q330.51 17.49 330.00 18.88 Q329.49 20.27 329.49 21.91 L329.49 21.91 Q329.49 23.53 330.00 24.91 Q330.51 26.29 331.57 27.14 Q332.62 27.99 334.26 27.99 L334.26 27.99 Q335.08 27.99 335.77 27.77 Q336.46 27.55 336.99 27.15 Q337.53 26.75 337.90 26.19 Q338.26 25.63 338.44 24.98 L338.44 24.98 L340.96 25.69 Q340.63 26.79 340.00 27.65 Q339.36 28.51 338.48 29.11 Q337.60 29.72 336.53 30.04 Q335.46 30.35 334.26 30.35 Z M351.40 30.35 L351.40 30.35 Q349.17 30.35 347.50 29.30 Q345.82 28.24 344.88 26.34 Q343.95 24.43 343.95 21.91 L343.95 21.91 Q343.95 19.35 344.88 17.44 Q345.82 15.53 347.50 14.47 Q349.17 13.42 351.40 13.42 L351.40 13.42 Q353.64 13.42 355.33 14.47 Q357.01 15.53 357.95 17.44 Q358.89 19.35 358.89 21.91 L358.89 21.91 Q358.89 24.43 357.95 26.34 Q357.01 28.24 355.33 29.30 Q353.64 30.35 351.40 30.35 Z M351.40 27.99 L351.40 27.99 Q353.06 27.99 354.13 27.14 Q355.20 26.29 355.71 24.91 Q356.22 23.53 356.22 21.91 L356.22 21.91 Q356.22 20.29 355.71 18.89 Q355.20 17.49 354.13 16.63 Q353.06 15.78 351.40 15.78 L351.40 15.78 Q349.76 15.78 348.71 16.63 Q347.65 17.49 347.14 18.88 Q346.63 20.27 346.63 21.91 L346.63 21.91 Q346.63 23.53 347.14 24.91 Q347.65 26.29 348.71 27.14 Q349.76 27.99 351.40 27.99 Z M365.36 36.12 L362.72 36.12 L362.72 13.62 L365.27 13.62 L365.27 16.25 L365.57 16.25 Q365.84 15.81 366.34 15.14 Q366.84 14.47 367.78 13.95 Q368.72 13.42 370.31 13.42 L370.31 13.42 Q372.36 13.42 373.92 14.44 Q375.48 15.47 376.37 17.37 Q377.26 19.26 377.26 21.86 L377.26 21.86 Q377.26 24.46 376.38 26.37 Q375.50 28.27 373.94 29.31 Q372.38 30.35 370.33 30.35 L370.33 30.35 Q368.77 30.35 367.82 29.82 Q366.87 29.28 366.36 28.60 Q365.84 27.92 365.57 27.47 L365.57 27.47 L365.36 27.47 L365.36 36.12 Z M369.93 27.99 L369.93 27.99 Q371.47 27.99 372.50 27.17 Q373.54 26.34 374.06 24.94 Q374.58 23.54 374.58 21.83 L374.58 21.83 Q374.58 20.13 374.06 18.76 Q373.55 17.39 372.52 16.58 Q371.48 15.78 369.93 15.78 L369.93 15.78 Q368.42 15.78 367.40 16.54 Q366.37 17.30 365.85 18.65 Q365.33 20.01 365.33 21.83 L365.33 21.83 Q365.33 23.64 365.86 25.03 Q366.39 26.43 367.42 27.21 Q368.45 27.99 369.93 27.99 Z M383.73 30.00 L381.09 30.00 L381.09 13.62 L383.73 13.62 L383.73 30.00 Z M382.43 10.94 L382.43 10.94 Q381.68 10.94 381.14 10.43 Q380.60 9.92 380.60 9.20 L380.60 9.20 Q380.60 8.47 381.14 7.96 Q381.68 7.46 382.43 7.46 L382.43 7.46 Q383.19 7.46 383.73 7.96 Q384.27 8.47 384.27 9.20 L384.27 9.20 Q384.27 9.92 383.73 10.43 Q383.19 10.94 382.43 10.94 Z M395.02 30.35 L395.02 30.35 Q392.80 30.35 391.12 29.30 Q389.44 28.24 388.51 26.34 Q387.57 24.43 387.57 21.91 L387.57 21.91 Q387.57 19.35 388.51 17.44 Q389.44 15.53 391.12 14.47 Q392.80 13.42 395.02 13.42 L395.02 13.42 Q396.21 13.42 397.27 13.73 Q398.32 14.03 399.19 14.61 Q400.06 15.19 400.69 16.03 Q401.32 16.88 401.66 17.94 L401.66 17.94 L399.13 18.66 Q398.95 18.03 398.58 17.50 Q398.22 16.98 397.70 16.59 Q397.18 16.20 396.50 15.99 Q395.83 15.78 395.02 15.78 L395.02 15.78 Q393.38 15.78 392.33 16.63 Q391.27 17.49 390.76 18.88 Q390.25 20.27 390.25 21.91 L390.25 21.91 Q390.25 23.53 390.76 24.91 Q391.27 26.29 392.33 27.14 Q393.38 27.99 395.02 27.99 L395.02 27.99 Q395.84 27.99 396.53 27.77 Q397.22 27.55 397.76 27.15 Q398.29 26.75 398.66 26.19 Q399.02 25.63 399.20 24.98 L399.20 24.98 L401.72 25.69 Q401.40 26.79 400.76 27.65 Q400.12 28.51 399.24 29.11 Q398.36 29.72 397.29 30.04 Q396.23 30.35 395.02 30.35 Z M421.25 30.38 L421.25 30.38 Q418.89 30.38 417.15 29.62 Q415.42 28.86 414.43 27.49 Q413.45 26.12 413.32 24.29 L413.32 24.29 L416.18 24.29 Q416.29 25.52 417.01 26.32 Q417.73 27.11 418.85 27.50 Q419.97 27.89 421.25 27.89 L421.25 27.89 Q422.72 27.89 423.90 27.41 Q425.08 26.92 425.77 26.04 Q426.46 25.17 426.46 24.01 L426.46 24.01 Q426.46 22.95 425.87 22.29 Q425.27 21.64 424.29 21.21 Q423.31 20.79 422.14 20.46 L422.14 20.46 L419.50 19.72 Q416.87 18.97 415.40 17.58 Q413.94 16.19 413.94 14.02 L413.94 14.02 Q413.94 12.17 414.93 10.79 Q415.93 9.40 417.63 8.64 Q419.33 7.88 421.44 7.88 L421.44 7.88 Q423.59 7.88 425.24 8.64 Q426.90 9.40 427.86 10.72 Q428.82 12.03 428.88 13.68 L428.88 13.68 L426.15 13.68 Q425.96 12.08 424.63 11.21 Q423.30 10.34 421.35 10.34 L421.35 10.34 Q419.94 10.34 418.88 10.80 Q417.82 11.26 417.23 12.06 Q416.65 12.86 416.65 13.89 L416.65 13.89 Q416.65 15.03 417.36 15.73 Q418.07 16.42 419.04 16.81 Q420.01 17.20 420.81 17.42 L420.81 17.42 L422.99 18.02 Q423.87 18.25 424.93 18.66 Q425.99 19.07 426.96 19.75 Q427.92 20.43 428.55 21.48 Q429.17 22.53 429.17 24.05 L429.17 24.05 Q429.17 25.84 428.24 27.28 Q427.31 28.71 425.54 29.55 Q423.76 30.38 421.25 30.38 Z M435.82 36.12 L433.18 36.12 L433.18 13.62 L435.73 13.62 L435.73 16.25 L436.03 16.25 Q436.30 15.81 436.80 15.14 Q437.30 14.47 438.24 13.95 Q439.17 13.42 440.77 13.42 L440.77 13.42 Q442.82 13.42 444.38 14.44 Q445.94 15.47 446.83 17.37 Q447.71 19.26 447.71 21.86 L447.71 21.86 Q447.71 24.46 446.84 26.37 Q445.96 28.27 444.40 29.31 Q442.84 30.35 440.79 30.35 L440.79 30.35 Q439.23 30.35 438.28 29.82 Q437.33 29.28 436.82 28.60 Q436.30 27.92 436.03 27.47 L436.03 27.47 L435.82 27.47 L435.82 36.12 Z M440.39 27.99 L440.39 27.99 Q441.93 27.99 442.96 27.17 Q443.99 26.34 444.51 24.94 Q445.03 23.54 445.03 21.83 L445.03 21.83 Q445.03 20.13 444.52 18.76 Q444.01 17.39 442.98 16.58 Q441.94 15.78 440.39 15.78 L440.39 15.78 Q438.88 15.78 437.86 16.54 Q436.83 17.30 436.31 18.65 Q435.79 20.01 435.79 21.83 L435.79 21.83 Q435.79 23.64 436.32 25.03 Q436.85 26.43 437.88 27.21 Q438.91 27.99 440.39 27.99 Z M454.19 30.00 L451.55 30.00 L451.55 13.62 L454.19 13.62 L454.19 30.00 Z M452.89 10.94 L452.89 10.94 Q452.14 10.94 451.60 10.43 Q451.05 9.92 451.05 9.20 L451.05 9.20 Q451.05 8.47 451.60 7.96 Q452.14 7.46 452.89 7.46 L452.89 7.46 Q453.65 7.46 454.19 7.96 Q454.73 8.47 454.73 9.20 L454.73 9.20 Q454.73 9.92 454.19 10.43 Q453.65 10.94 452.89 10.94 Z M461.46 20.19 L461.46 20.19 L461.46 30.00 L458.82 30.00 L458.82 13.62 L461.35 13.62 L461.37 17.59 L461.00 17.59 Q461.75 15.32 463.13 14.37 Q464.52 13.42 466.38 13.42 L466.38 13.42 Q468.03 13.42 469.28 14.10 Q470.52 14.78 471.22 16.15 Q471.91 17.52 471.91 19.60 L471.91 19.60 L471.91 30.00 L469.28 30.00 L469.28 19.82 Q469.28 17.93 468.29 16.86 Q467.30 15.79 465.59 15.79 L465.59 15.79 Q464.41 15.79 463.48 16.30 Q462.54 16.82 462.00 17.80 Q461.46 18.78 461.46 20.19 Z M483.43 30.35 L483.43 30.35 Q481.05 30.35 479.33 29.30 Q477.61 28.24 476.68 26.35 Q475.75 24.46 475.75 21.94 L475.75 21.94 Q475.75 19.42 476.66 17.50 Q477.57 15.59 479.23 14.50 Q480.89 13.42 483.12 13.42 L483.12 13.42 Q484.42 13.42 485.69 13.85 Q486.96 14.28 487.99 15.24 Q489.02 16.20 489.64 17.77 Q490.25 19.34 490.25 21.61 L490.25 21.61 L490.25 22.71 L477.54 22.71 L477.54 20.48 L488.83 20.48 L487.60 21.30 Q487.60 19.69 487.10 18.44 Q486.59 17.18 485.60 16.47 Q484.60 15.76 483.12 15.76 L483.12 15.76 Q481.64 15.76 480.59 16.49 Q479.53 17.21 478.97 18.38 Q478.42 19.54 478.42 20.87 L478.42 20.87 L478.42 22.35 Q478.42 24.17 479.05 25.44 Q479.68 26.70 480.81 27.36 Q481.95 28.01 483.44 28.01 L483.44 28.01 Q484.41 28.01 485.20 27.73 Q485.99 27.45 486.56 26.89 Q487.13 26.32 487.44 25.49 L487.44 25.49 L489.99 26.19 Q489.61 27.42 488.70 28.36 Q487.79 29.30 486.45 29.82 Q485.11 30.35 483.43 30.35 Z M509.78 30.38 L509.78 30.38 Q507.42 30.38 505.69 29.62 Q503.95 28.86 502.97 27.49 Q501.99 26.12 501.86 24.29 L501.86 24.29 L504.71 24.29 Q504.83 25.52 505.55 26.32 Q506.26 27.11 507.39 27.50 Q508.51 27.89 509.78 27.89 L509.78 27.89 Q511.26 27.89 512.44 27.41 Q513.62 26.92 514.31 26.04 Q515.00 25.17 515.00 24.01 L515.00 24.01 Q515.00 22.95 514.40 22.29 Q513.81 21.64 512.83 21.21 Q511.85 20.79 510.67 20.46 L510.67 20.46 L508.04 19.72 Q505.40 18.97 503.94 17.58 Q502.47 16.19 502.47 14.02 L502.47 14.02 Q502.47 12.17 503.47 10.79 Q504.46 9.40 506.16 8.64 Q507.86 7.88 509.97 7.88 L509.97 7.88 Q512.12 7.88 513.78 8.64 Q515.43 9.40 516.39 10.72 Q517.35 12.03 517.41 13.68 L517.41 13.68 L514.69 13.68 Q514.50 12.08 513.16 11.21 Q511.83 10.34 509.88 10.34 L509.88 10.34 Q508.48 10.34 507.41 10.80 Q506.35 11.26 505.77 12.06 Q505.18 12.86 505.18 13.89 L505.18 13.89 Q505.18 15.03 505.89 15.73 Q506.60 16.42 507.58 16.81 Q508.55 17.20 509.34 17.42 L509.34 17.42 L511.52 18.02 Q512.40 18.25 513.46 18.66 Q514.53 19.07 515.49 19.75 Q516.46 20.43 517.08 21.48 Q517.71 22.53 517.71 24.05 L517.71 24.05 Q517.71 25.84 516.77 27.28 Q515.84 28.71 514.07 29.55 Q512.30 30.38 509.78 30.38 Z M527.27 30.21 L527.27 30.21 Q525.62 30.21 524.36 29.52 Q523.11 28.84 522.41 27.47 Q521.72 26.09 521.72 24.02 L521.72 24.02 L521.72 13.62 L524.36 13.62 L524.36 23.80 Q524.36 25.69 525.35 26.76 Q526.35 27.83 528.06 27.83 L528.06 27.83 Q529.23 27.83 530.16 27.32 Q531.09 26.81 531.64 25.82 Q532.18 24.83 532.18 23.44 L532.18 23.44 L532.18 13.62 L534.83 13.62 L534.83 30.00 L532.28 30.00 L532.28 26.03 L532.63 26.03 Q531.87 28.33 530.47 29.27 Q529.07 30.21 527.27 30.21 Z M542.09 30.00 L539.46 30.00 L539.46 13.62 L542.01 13.62 L542.01 16.14 L542.18 16.14 Q542.64 14.90 543.80 14.14 Q544.97 13.39 546.43 13.39 L546.43 13.39 Q546.72 13.39 547.13 13.40 Q547.53 13.42 547.76 13.43 L547.76 13.43 L547.76 16.08 Q547.65 16.05 547.18 16.00 Q546.71 15.94 546.18 15.94 L546.18 15.94 Q545.01 15.94 544.08 16.43 Q543.15 16.92 542.62 17.78 Q542.09 18.63 542.09 19.75 L542.09 19.75 L542.09 30.00 Z M557.39 36.47 L557.39 36.47 Q555.57 36.47 554.25 36.01 Q552.92 35.55 552.04 34.79 Q551.16 34.03 550.65 33.13 L550.65 33.13 L552.79 31.76 Q553.14 32.23 553.66 32.80 Q554.18 33.37 555.07 33.77 Q555.95 34.17 557.39 34.17 L557.39 34.17 Q559.35 34.17 560.62 33.24 Q561.88 32.30 561.88 30.28 L561.88 30.28 L561.88 27.00 L561.64 27.00 Q561.36 27.47 560.85 28.11 Q560.35 28.75 559.40 29.25 Q558.46 29.74 556.88 29.74 L556.88 29.74 Q554.91 29.74 553.34 28.81 Q551.78 27.88 550.87 26.09 Q549.96 24.30 549.96 21.74 L549.96 21.74 Q549.96 19.20 550.85 17.34 Q551.75 15.47 553.32 14.44 Q554.90 13.42 556.93 13.42 L556.93 13.42 Q558.52 13.42 559.46 13.94 Q560.41 14.46 560.92 15.13 Q561.43 15.81 561.71 16.25 L561.71 16.25 L561.96 16.25 L561.96 13.62 L564.52 13.62 L564.52 30.42 Q564.52 32.53 563.57 33.87 Q562.62 35.21 561.00 35.84 Q559.38 36.47 557.39 36.47 Z M557.31 27.39 L557.31 27.39 Q558.81 27.39 559.83 26.71 Q560.86 26.03 561.39 24.75 Q561.91 23.47 561.91 21.68 L561.91 21.68 Q561.91 19.94 561.39 18.61 Q560.87 17.29 559.85 16.53 Q558.82 15.78 557.31 15.78 L557.31 15.78 Q555.76 15.78 554.72 16.57 Q553.68 17.37 553.16 18.71 Q552.64 20.04 552.64 21.68 L552.64 21.68 Q552.64 23.36 553.17 24.65 Q553.70 25.94 554.74 26.67 Q555.78 27.39 557.31 27.39 Z M576.04 30.35 L576.04 30.35 Q573.66 30.35 571.94 29.30 Q570.22 28.24 569.29 26.35 Q568.36 24.46 568.36 21.94 L568.36 21.94 Q568.36 19.42 569.27 17.50 Q570.18 15.59 571.84 14.50 Q573.50 13.42 575.73 13.42 L575.73 13.42 Q577.03 13.42 578.30 13.85 Q579.57 14.28 580.60 15.24 Q581.63 16.20 582.25 17.77 Q582.86 19.34 582.86 21.61 L582.86 21.61 L582.86 22.71 L570.15 22.71 L570.15 20.48 L581.44 20.48 L580.21 21.30 Q580.21 19.69 579.70 18.44 Q579.20 17.18 578.20 16.47 Q577.21 15.76 575.73 15.76 L575.73 15.76 Q574.25 15.76 573.19 16.49 Q572.14 17.21 571.58 18.38 Q571.03 19.54 571.03 20.87 L571.03 20.87 L571.03 22.35 Q571.03 24.17 571.66 25.44 Q572.29 26.70 573.42 27.36 Q574.56 28.01 576.05 28.01 L576.05 28.01 Q577.02 28.01 577.81 27.73 Q578.60 27.45 579.17 26.89 Q579.74 26.32 580.05 25.49 L580.05 25.49 L582.60 26.19 Q582.22 27.42 581.31 28.36 Q580.40 29.30 579.06 29.82 Q577.72 30.35 576.04 30.35 Z M589.28 30.00 L586.64 30.00 L586.64 13.62 L589.19 13.62 L589.19 16.14 L589.37 16.14 Q589.82 14.90 590.98 14.14 Q592.15 13.39 593.61 13.39 L593.61 13.39 Q593.91 13.39 594.31 13.40 Q594.71 13.42 594.95 13.43 L594.95 13.43 L594.95 16.08 Q594.83 16.05 594.36 16.00 Q593.89 15.94 593.36 15.94 L593.36 15.94 Q592.19 15.94 591.26 16.43 Q590.33 16.92 589.80 17.78 Q589.28 18.63 589.28 19.75 L589.28 19.75 L589.28 30.00 Z M597.67 35.93 L597.67 35.93 L598.34 33.65 L598.62 33.72 Q599.43 33.93 600.09 33.83 Q600.75 33.74 601.27 33.18 Q601.80 32.62 602.20 31.45 L602.20 31.45 L602.67 30.09 L596.41 13.62 L599.30 13.62 L602.78 23.33 Q603.34 24.86 603.72 26.35 Q604.10 27.85 604.53 29.25 L604.53 29.25 L603.56 29.25 Q603.98 27.85 604.37 26.35 Q604.76 24.84 605.30 23.33 L605.30 23.33 L608.82 13.62 L611.69 13.62 L604.50 32.45 Q604.00 33.75 603.30 34.59 Q602.61 35.43 601.68 35.84 Q600.76 36.24 599.60 36.24 L599.60 36.24 Q598.90 36.24 598.39 36.14 Q597.88 36.04 597.67 35.93 Z" fill="#6A7A8C" />
    </g>
</svg>